<svg width="20" height="20" viewBox="0 0 20 20" fill="none" xmlns="http://www.w3.org/2000/svg">
<path d="M14.166 8.33268H15.8327C17.4993 8.33268 18.3327 7.49935 18.3327 5.83268V4.16602C18.3327 2.49935 17.4993 1.66602 15.8327 1.66602H14.166C12.4993 1.66602 11.666 2.49935 11.666 4.16602V5.83268C11.666 7.49935 12.4993 8.33268 14.166 8.33268Z" stroke="#1C1C13" stroke-width="1.5" stroke-miterlimit="10" stroke-linecap="round" stroke-linejoin="round"/>
<path d="M4.16602 18.3327H5.83268C7.49935 18.3327 8.33268 17.4993 8.33268 15.8327V14.166C8.33268 12.4993 7.49935 11.666 5.83268 11.666H4.16602C2.49935 11.666 1.66602 12.4993 1.66602 14.166V15.8327C1.66602 17.4993 2.49935 18.3327 4.16602 18.3327Z" stroke="#1C1C13" stroke-width="1.5" stroke-miterlimit="10" stroke-linecap="round" stroke-linejoin="round"/>
<path d="M4.99935 8.33268C6.8403 8.33268 8.33268 6.8403 8.33268 4.99935C8.33268 3.1584 6.8403 1.66602 4.99935 1.66602C3.1584 1.66602 1.66602 3.1584 1.66602 4.99935C1.66602 6.8403 3.1584 8.33268 4.99935 8.33268Z" stroke="#1C1C13" stroke-width="1.5" stroke-miterlimit="10" stroke-linecap="round" stroke-linejoin="round"/>
<path d="M14.9993 18.3327C16.8403 18.3327 18.3327 16.8403 18.3327 14.9993C18.3327 13.1584 16.8403 11.666 14.9993 11.666C13.1584 11.666 11.666 13.1584 11.666 14.9993C11.666 16.8403 13.1584 18.3327 14.9993 18.3327Z" stroke="#1C1C13" stroke-width="1.5" stroke-miterlimit="10" stroke-linecap="round" stroke-linejoin="round"/>
</svg>
