<svg width="224" height="221" viewBox="0 0 224 221" fill="none" xmlns="http://www.w3.org/2000/svg">
<path d="M223.256 149.086C222.617 149.259 222.675 149.897 222.559 150.303C221.514 153.318 219.597 155.58 216.926 157.261C214.951 158.479 212.977 159.697 210.944 160.798C209.086 161.842 207.17 161.32 206.241 159.639C205.369 158.015 205.892 156.334 207.692 155.232C209.551 154.072 211.409 152.97 213.267 151.869C215.59 150.477 216.752 148.506 216.694 145.78C216.694 124.616 216.694 103.452 216.694 82.346C216.694 80.7225 216.519 80.2586 214.893 81.2443C196.02 92.5512 177.088 103.742 158.214 115.049C155.369 116.73 154.962 118.528 156.704 121.369C165.473 136.039 174.184 150.651 182.953 165.321C184.347 167.64 186.031 168.046 188.412 166.713C190.212 165.669 192.013 164.567 193.813 163.524C195.787 162.422 197.762 162.828 198.691 164.509C199.62 166.133 199.039 167.93 197.123 169.09C195.149 170.308 193.174 171.525 191.142 172.627C187.251 174.714 183.476 174.425 179.875 171.873C178.946 171.235 176.333 171.815 175.81 172.743C175.52 173.265 175.985 173.497 176.217 173.845C179.062 178.251 179.237 182.774 176.217 187.065C173.139 191.414 168.725 192.805 163.557 191.472C162.628 191.24 162.337 191.356 162.163 192.342C161.118 198.14 155.369 202.663 148.981 201.387C147.587 201.097 147.819 202.025 147.703 202.721C146.483 207.939 143.231 211.012 138.005 211.998C135.333 212.462 132.836 211.708 130.455 210.491C129.933 210.838 130.107 211.418 129.991 211.824C128.132 219.304 120.002 222.957 113.208 219.246C110.652 217.854 108.213 216.347 105.716 214.839C104.787 214.26 104.206 214.201 103.335 215.071C97.4699 220.406 89.0494 219.072 85.2166 212.172C84.6939 211.244 84.4035 210.838 83.184 211.244C76.7379 213.1 70.7564 209.853 68.84 203.474C68.4915 202.257 67.9689 202.141 66.9236 202.141C61.2905 202.199 57.2254 199.3 55.4832 193.965C55.1348 192.921 54.7283 192.573 53.5668 192.573C48.8048 192.747 45.1462 190.66 42.9394 186.427C40.7327 182.194 41.2553 178.02 43.9848 174.135C44.7978 173.033 45.6108 171.931 46.3658 170.772C46.598 170.424 47.2369 170.018 46.54 169.554C46.0754 169.264 45.785 169.612 45.4366 169.902C39.9197 174.83 36.7257 175.178 30.2796 171.351C24.1238 167.698 18.0262 163.929 11.8124 160.392C6.93425 157.609 2.17227 154.826 0.255859 149.086C0.255859 125.602 0.255859 102.119 0.255859 78.6351C0.430078 78.4611 0.662371 78.2871 0.778517 78.0552C3.33372 73.7064 7.05039 72.6627 11.4059 75.272C29.5246 85.999 47.5853 96.784 65.704 107.569C66.8655 108.265 68.085 108.961 69.2465 109.714C72.5566 111.802 74.3569 114.817 74.2408 118.76C74.2408 119.862 74.5892 120.383 75.4603 120.963C79.1189 123.283 82.8936 123.631 86.8426 122.007C88.5848 121.311 90.385 120.731 92.0691 119.92C98.1668 117.194 104.032 117.658 109.723 121.079C110.943 121.833 112.046 121.949 113.382 121.543C116.924 120.557 120.525 119.688 124.125 118.76C127.552 117.89 130.862 118.064 134.114 119.398C136.495 120.383 138.992 121.253 141.373 122.239C143.58 123.109 145.845 123.283 148.168 122.645C149.213 122.355 149.561 122.065 149.271 120.905C148.226 116.151 149.968 112.092 154.207 109.598C173.487 98.1177 192.768 86.6368 212.048 75.214C216.577 72.5467 220.12 73.8224 223.082 79.0989C223.256 102.408 223.256 125.718 223.256 149.086ZM68.027 169.09C75.5184 162.074 85.8553 166.655 87.4233 174.309C87.7137 175.584 88.4686 175.236 89.2236 175.236C97.2376 175.236 102.522 181.788 100.78 189.674C100.548 190.718 100.606 191.008 101.651 191.298C109.143 193.675 112.104 200.517 108.794 207.649C108.33 208.635 108.562 208.983 109.375 209.447C111.582 210.664 113.73 212.056 115.937 213.274C118.725 214.839 121.686 214.144 123.138 211.708C124.532 209.273 123.719 206.49 121.048 204.808C119.073 203.59 117.041 202.431 115.066 201.271C114.079 200.691 113.266 199.995 113.092 198.836C112.917 197.502 113.208 196.4 114.369 195.589C115.647 194.719 116.924 194.835 118.26 195.589C123.254 198.546 128.249 201.445 133.185 204.402C134.462 205.156 135.74 205.794 137.308 205.446C139.515 204.982 140.908 203.59 141.373 201.387C141.78 199.358 140.85 197.386 138.76 196.11C133.359 192.863 127.9 189.674 122.499 186.485C120.235 185.152 119.596 183.412 120.641 181.673C121.628 179.933 123.545 179.585 125.751 180.861C128.597 182.484 131.385 184.166 134.172 185.847C138.876 188.631 143.638 191.472 148.4 194.255C150.316 195.415 152.291 195.357 154.091 194.023C155.775 192.747 156.24 191.008 155.891 188.978C155.543 187.181 154.265 186.195 152.755 185.326C145.67 181.151 138.527 176.918 131.443 172.743C130.862 172.395 130.281 172.105 129.817 171.699C128.481 170.54 128.249 169.09 129.12 167.582C129.991 166.017 131.443 165.727 133.069 166.191C133.766 166.423 134.346 166.887 134.985 167.235C144.567 172.917 154.149 178.599 163.789 184.224C166.867 186.021 169.829 185.441 171.339 182.832C172.79 180.281 171.861 177.44 168.9 175.7C154.207 167.003 139.515 158.363 124.822 149.607C123.661 148.912 123.196 148.854 122.499 150.303C120.525 154.71 117.099 157.551 112.395 158.769C104.845 160.74 100.954 156.044 101.419 150.361C101.709 146.708 101.593 142.997 101.477 139.286C101.303 134.416 102.058 129.893 105.542 126.124C102.58 124.326 99.6767 124.152 96.6569 125.254C93.9275 126.24 91.2561 127.342 88.5267 128.327C83.3001 130.241 78.2478 129.835 73.4858 127.052C72.0921 126.24 71.5113 126.356 70.6983 127.747C64.0199 139.17 57.2254 150.535 50.4889 161.9C50.1986 162.422 49.2113 163.06 49.9663 163.697C50.6632 164.277 51.4181 164.973 52.6957 164.451C59.1418 161.842 63.4973 163.176 68.027 169.09ZM67.9108 118.644C67.8527 116.788 66.9236 115.803 65.5879 115.049C46.6561 103.8 27.6663 92.4932 8.7345 81.1863C7.22461 80.2586 6.87617 80.4905 6.87617 82.2301C6.93425 103.394 6.93425 124.5 6.87617 145.664C6.87617 148.448 8.03763 150.477 10.4186 151.927C18.5488 156.739 26.679 161.61 34.8092 166.481C37.5387 168.104 39.3389 167.64 40.965 164.915C49.6178 150.303 58.2707 135.691 66.9816 121.137C67.5043 120.21 67.9689 119.398 67.9108 118.644ZM107.923 143.461C107.923 145.896 108.039 148.39 107.865 150.825C107.749 152.623 108.562 152.854 110.072 152.623C114.021 151.985 116.808 148.854 117.273 144.505C117.737 140.098 119.712 139.112 123.487 141.374C137.482 149.665 151.594 157.841 165.473 166.307C168.667 168.278 171.048 168.684 174.01 166.249C175.055 165.437 175.171 165.031 174.533 163.987C167.622 152.449 160.769 140.852 153.975 129.313C153.336 128.269 152.871 128.037 151.594 128.501C147.529 130.067 143.348 129.951 139.282 128.385C136.785 127.4 134.288 126.472 131.791 125.486C130.223 124.906 128.597 124.558 126.913 124.964C122.674 126.008 118.492 126.994 114.311 128.153C110.42 129.255 108.039 132.502 107.981 136.503C107.865 138.822 107.923 141.142 107.923 143.461ZM66.5171 195.589C67.9689 195.647 69.3046 195.125 70.1757 193.965C73.7181 189.152 77.2605 184.34 80.6288 179.353C82.0806 177.266 81.2676 174.482 79.235 173.033C77.2025 171.583 74.2988 171.699 72.7889 173.729C69.1884 178.483 65.5879 183.354 62.3358 188.341C60.1871 191.472 62.7423 195.589 66.5171 195.589ZM79.9319 205.156C81.3257 205.156 82.6033 204.75 83.4163 203.648C87.0168 198.778 90.6173 193.907 93.9855 188.863C95.3793 186.775 94.5082 183.992 92.4757 182.542C90.4431 181.151 87.6556 181.209 86.1457 183.18C82.4871 187.993 78.8866 192.863 75.5764 197.966C73.5439 201.155 76.1572 205.214 79.9319 205.156ZM62.6842 175.062C62.8004 172.743 61.5809 170.83 59.7225 170.076C57.69 169.264 55.309 169.786 53.9152 171.699C52.2892 173.787 50.7212 175.99 49.2113 178.193C47.5853 180.629 48.0499 183.528 50.2566 185.094C52.5796 186.775 55.4251 186.311 57.2835 183.818C58.7934 181.788 60.2452 179.759 61.697 177.672C62.3358 176.86 62.7423 175.932 62.6842 175.062ZM95.6697 211.708C96.6569 211.766 97.8184 211.418 98.6314 210.549C100.49 208.635 102.116 206.49 103.277 204.054C104.323 201.967 103.393 199.416 101.477 198.14C99.4444 196.748 96.8311 196.98 95.2051 198.836C93.6952 200.575 92.3014 202.431 91.14 204.46C89.2236 207.765 91.6626 211.708 95.6697 211.708Z" fill="#030303"/>
<path d="M68.6658 47.6716C68.6658 49.7011 68.7238 51.4406 68.6658 53.1221C68.6077 55.4415 67.272 56.8911 65.3556 56.8911C63.4392 56.8911 62.1616 55.4415 62.1616 53.0641C62.1616 45.0044 62.1035 37.0026 62.1616 28.9428C62.2197 22.2167 67.5043 16.9981 74.2408 16.9401C79.6996 16.8822 85.1004 16.8822 90.5592 16.9401C92.1272 16.9401 92.5918 16.4763 92.4176 14.9687C91.5465 5.74924 96.715 0.124803 106.704 0.82061C111.059 1.11053 115.414 0.820605 119.77 0.878589C126.681 0.936573 131.152 5.40134 131.268 12.3014C131.326 16.8822 131.326 16.8822 135.914 16.8822C140.212 16.8822 144.451 16.8822 148.748 16.8822C156.414 16.9401 161.524 22.0427 161.524 29.7546C161.524 44.1926 161.524 58.5726 161.524 73.0106C161.524 80.6645 156.414 85.8251 148.748 85.883C141.141 85.941 133.533 85.883 125.868 85.883C109.026 85.883 92.1853 85.883 75.3441 85.883C68.7238 85.883 63.9038 82.346 62.452 76.3737C61.8132 73.6484 61.9874 70.8652 62.2197 68.14C62.3939 66.4584 63.7296 65.4727 65.4717 65.5887C67.3301 65.6467 68.4335 66.8063 68.6077 68.6038C68.7819 70.1114 68.6658 71.619 68.6658 73.1846C68.7238 76.7796 70.7564 78.983 74.3569 79.3309C74.9376 79.3889 75.5184 79.3888 76.0991 79.3888C99.909 79.3888 123.719 79.3888 147.529 79.3888C153.046 79.3888 155.02 77.4174 155.02 71.9669C155.02 64.0231 155.02 56.0213 155.02 47.7296C151.942 50.049 148.806 51.7305 145.206 52.3104C143.754 52.5423 142.302 52.6003 140.85 52.5423C139.747 52.4843 139.224 52.7742 139.34 53.9919C139.399 54.8037 139.399 55.6154 139.34 56.3692C139.224 58.2827 138.063 59.3264 136.263 59.3844C134.52 59.5004 133.417 58.4566 132.952 56.7751C132.894 56.4852 132.836 56.1953 132.836 55.9053C132.546 52.5423 132.546 52.5423 129.236 52.5423C117.099 52.5423 105.019 52.6003 92.8822 52.4843C91.3142 52.4843 90.5592 52.7742 90.8496 54.4557C90.9658 54.9196 90.9077 55.4415 90.8496 55.9633C90.6754 57.9928 89.3397 59.3844 87.5975 59.3844C85.7392 59.3844 84.4616 57.9348 84.3455 55.7894C84.3455 55.4995 84.2874 55.2095 84.3455 54.9196C84.6939 52.8902 83.8809 52.3683 81.9064 52.4843C76.9702 52.7162 72.7309 50.9187 68.6658 47.6716ZM111.93 23.4343C99.6767 23.4343 87.4233 23.4343 75.1699 23.4343C70.8145 23.4343 68.6658 25.6377 68.6658 29.9865C68.6658 31.1462 68.6658 32.3059 68.6658 33.4656C68.84 39.9598 73.8923 45.3523 80.2803 46.0481C84.1132 46.454 84.1132 46.454 84.2874 42.685C84.4035 40.6556 85.6811 39.264 87.4814 39.264C89.2236 39.264 90.6173 40.5976 90.7915 42.569C90.8496 42.9749 90.8496 43.4388 90.7915 43.8447C90.5012 45.5842 91.0819 46.1061 92.9402 46.1061C104.729 45.9901 116.576 46.0481 128.365 46.0481C129.758 46.0481 131.326 46.396 132.372 45.8161C133.301 45.2943 132.546 43.5548 132.72 42.3371C132.72 42.2211 132.72 42.0472 132.778 41.9312C133.243 40.1917 134.404 39.09 136.205 39.264C138.005 39.3799 139.108 40.4816 139.166 42.3951C139.224 43.2069 139.224 44.0187 139.166 44.7724C139.108 45.6422 139.341 45.9901 140.328 46.1061C146.542 46.5699 152.291 42.859 154.207 37.1186C154.846 35.1471 154.672 33.1177 154.846 31.0882C155.252 25.5218 152.175 23.2604 147.238 23.3184C135.566 23.5503 123.777 23.4343 111.93 23.4343ZM111.814 16.8822C114.718 16.8822 117.621 16.8822 120.525 16.8822C124.764 16.8822 124.764 16.8822 124.706 12.7073C124.648 8.99635 123.08 7.43078 119.421 7.3728C115.124 7.3728 110.885 7.3728 106.587 7.3728C99.6186 7.3728 98.6895 8.35852 98.9217 15.3166C98.9798 16.5922 99.3283 16.8822 100.548 16.8822C104.264 16.8242 108.039 16.8822 111.814 16.8822Z" fill="#030303"/>
</svg>
